<?xml version="1.0" encoding="UTF-8" ?>
<!DOCTYPE svg PUBLIC "-//W3C//DTD SVG 1.1//EN" "http://www.w3.org/Graphics/SVG/1.1/DTD/svg11.dtd">
<svg width="775pt" height="180pt" viewBox="0 0 775 180" version="1.1" xmlns="http://www.w3.org/2000/svg">
<g id="#fde82aff">
<path fill="#fde82a" opacity="1.00" d=" M 405.46 17.95 C 421.55 15.74 437.84 14.73 454.02 13.03 C 455.91 29.30 455.96 45.82 456.07 62.23 C 451.90 58.46 448.10 54.29 443.99 50.47 C 430.21 63.97 417.94 78.97 404.10 92.40 C 398.88 85.48 393.42 78.74 388.20 71.82 C 386.97 69.86 384.78 66.99 386.75 64.84 C 397.38 52.67 408.82 41.24 419.42 29.05 C 415.00 25.06 409.34 22.48 405.46 17.95 Z" />
<path fill="#fde82a" opacity="1.00" d=" M 331.39 116.36 C 341.61 106.78 350.49 95.84 360.51 86.06 C 366.94 94.35 374.11 102.13 379.65 111.07 C 371.75 120.66 361.63 128.34 354.50 138.59 C 349.46 146.27 354.00 155.94 350.89 164.00 C 347.79 170.24 337.72 168.09 337.50 161.03 C 337.27 154.28 337.80 147.50 337.13 140.75 C 336.72 137.34 335.20 133.49 331.74 132.20 C 327.19 130.54 322.64 134.11 318.10 132.84 C 313.34 130.89 313.57 123.21 318.33 121.36 C 322.86 120.26 327.90 119.85 331.39 116.36 Z" />
</g>
<g id="#7af852ff">
<path fill="#7af852" opacity="1.00" d=" M 333.86 45.89 C 352.05 25.87 383.25 18.31 408.15 29.58 C 406.52 31.41 404.83 33.18 403.12 34.92 C 383.57 27.08 360.22 31.75 344.51 45.55 C 325.20 60.62 318.54 87.68 325.13 110.76 C 323.20 111.57 321.26 112.37 319.30 113.13 C 310.83 90.37 317.60 63.54 333.86 45.89 Z" />
<path fill="#7af852" opacity="1.00" d=" M 338.69 57.64 C 352.50 39.30 378.62 30.22 400.45 38.34 C 399.40 39.71 398.27 41.01 397.09 42.26 C 374.96 35.81 349.87 46.83 338.79 66.79 C 332.88 77.12 330.17 89.99 333.93 101.53 C 332.33 103.08 330.72 104.64 329.09 106.16 C 324.16 89.69 327.88 70.99 338.69 57.64 Z" />
<path fill="#7af852" opacity="1.00" d=" M 57.85 54.83 C 71.70 51.89 88.13 55.40 97.10 67.07 C 93.63 70.38 90.27 73.80 86.79 77.08 C 78.86 67.60 63.79 64.90 53.89 72.88 C 41.18 82.34 42.44 103.93 55.78 112.20 C 65.76 118.13 78.70 114.81 86.75 107.10 C 90.43 110.06 93.87 113.29 97.17 116.66 C 85.05 130.86 62.52 133.79 46.63 124.45 C 35.00 118.27 27.04 105.28 27.87 92.00 C 26.87 74.36 40.94 58.35 57.85 54.83 Z" />
<path fill="#7af852" opacity="1.00" d=" M 133.41 54.49 C 153.27 50.61 174.84 63.48 179.51 83.41 C 180.63 91.80 180.87 100.98 176.50 108.58 C 170.67 119.96 158.87 127.63 146.31 129.35 C 127.59 132.44 107.01 120.64 101.93 102.01 C 99.29 90.66 100.97 77.80 108.71 68.70 C 114.49 60.70 123.85 56.10 133.41 54.49 M 137.38 68.42 C 120.07 70.18 112.05 93.28 122.66 106.37 C 129.84 116.86 146.45 118.20 155.45 109.42 C 162.83 102.66 164.92 91.16 160.94 82.08 C 157.34 72.92 147.16 66.83 137.38 68.42 Z" />
<path fill="#7af852" opacity="1.00" d=" M 191.29 55.13 C 197.16 54.95 203.03 55.03 208.89 55.15 C 208.91 79.50 209.02 103.86 208.85 128.22 C 203.04 128.70 197.22 128.64 191.41 128.50 C 191.10 104.05 191.09 79.58 191.29 55.13 Z" />
<path fill="#7af852" opacity="1.00" d=" M 224.15 55.13 C 229.05 55.05 233.95 55.10 238.85 55.12 C 251.12 69.88 262.72 85.18 274.84 100.06 C 275.17 85.08 274.88 70.09 275.08 55.11 C 280.65 55.05 286.23 55.03 291.80 55.15 C 292.01 79.51 291.92 103.88 291.87 128.24 C 286.20 127.89 278.30 131.23 274.73 125.27 C 263.65 111.51 252.90 97.49 241.49 84.01 C 240.48 98.75 241.27 113.55 240.97 128.31 C 235.37 128.81 229.73 128.66 224.12 128.48 C 224.06 104.03 224.02 79.58 224.15 55.13 Z" />
<path fill="#7af852" opacity="1.00" d=" M 433.94 72.46 C 435.26 71.22 436.58 69.99 437.90 68.76 C 447.10 89.35 441.14 115.37 424.30 130.27 C 408.46 146.02 382.77 149.58 362.66 140.45 C 363.81 139.09 364.96 137.75 366.14 136.42 C 378.01 140.57 391.36 141.95 403.31 137.29 C 428.91 128.70 444.05 97.78 433.94 72.46 Z" />
<path fill="#7af852" opacity="1.00" d=" M 337.13 140.75 C 337.80 147.50 337.27 154.28 337.50 161.03 C 336.96 154.29 337.35 147.51 337.13 140.75 Z" />
</g>
<g id="#d1d1cfff">
<path fill="#d1d1cf" opacity="1.00" d=" M 472.87 55.02 C 491.52 54.97 510.17 54.79 528.83 55.04 C 528.90 59.53 528.95 64.02 528.83 68.51 C 515.86 68.53 502.87 68.34 489.90 68.76 C 489.93 75.12 489.85 81.47 489.95 87.83 C 501.61 88.09 513.27 87.78 524.93 87.95 C 525.00 92.31 524.98 96.67 524.84 101.04 C 513.18 101.28 501.51 101.15 489.85 101.15 C 489.75 110.17 489.83 119.19 489.77 128.21 C 484.11 128.46 478.44 128.38 472.78 128.18 C 472.87 103.79 473.06 79.41 472.87 55.02 Z" />
<path fill="#d1d1cf" opacity="1.00" d=" M 539.53 55.09 C 545.28 55.13 551.03 54.96 556.79 55.04 C 556.92 74.98 556.84 94.93 556.89 114.87 C 569.35 115.28 581.81 114.97 594.28 114.89 C 594.23 119.37 594.24 123.86 594.37 128.35 C 576.18 128.66 557.98 128.38 539.78 128.38 C 539.96 103.95 539.52 79.52 539.53 55.09 Z" />
<path fill="#d1d1cf" opacity="1.00" d=" M 601.05 55.10 C 606.62 55.10 612.20 55.02 617.78 55.09 C 617.98 69.07 617.73 83.06 617.96 97.04 C 618.13 102.71 619.81 108.90 624.50 112.50 C 633.27 118.55 648.32 115.04 650.53 103.61 C 652.75 87.59 651.52 71.31 651.85 55.17 C 657.46 55.18 663.07 54.93 668.68 55.14 C 668.60 69.51 669.26 83.92 668.31 98.27 C 667.96 109.15 662.75 120.62 652.69 125.71 C 640.83 131.43 625.97 131.20 614.60 124.40 C 605.36 118.67 601.17 107.51 601.08 97.03 C 601.06 83.05 601.04 69.08 601.05 55.10 Z" />
<path fill="#d1d1cf" opacity="1.00" d=" M 677.66 55.17 C 683.94 55.25 690.27 54.77 696.52 55.35 C 702.01 63.06 707.29 70.95 713.07 78.46 C 719.15 71.25 724.02 63.12 729.57 55.54 C 735.55 54.46 741.99 55.39 748.15 55.09 C 739.78 66.86 731.58 78.78 722.71 90.18 C 731.55 103.01 741.44 115.12 749.59 128.41 C 743.33 128.65 737.00 128.99 730.77 128.34 C 724.79 119.75 719.04 111.00 712.80 102.59 C 706.53 111.08 701.04 120.16 694.58 128.50 C 688.36 128.88 682.11 128.58 675.88 128.50 C 684.69 115.84 693.73 103.33 702.92 90.93 C 694.43 79.06 685.32 67.60 677.66 55.17 Z" />
</g>
<g id="#961ed2fe">
<path fill="#961ed2" opacity="1.00" d=" M 364.21 61.17 C 366.51 58.15 371.42 58.30 373.62 61.36 C 383.10 73.56 392.72 85.68 402.04 97.99 C 401.11 98.62 400.19 99.25 399.28 99.88 C 388.79 87.96 379.55 75.00 369.54 62.67 C 365.90 64.44 363.30 67.66 360.52 70.49 C 352.40 79.69 343.64 88.25 335.52 97.43 C 335.42 95.80 334.77 94.09 335.27 92.48 C 344.60 81.74 354.81 71.84 364.21 61.17 Z" />
</g>
<g id="#8b20bffc">
<path fill="#8b20bf" opacity="1.00" d=" M 441.03 64.90 C 442.47 63.69 443.90 62.48 445.37 61.30 C 449.98 66.36 451.24 73.45 452.22 79.99 C 455.77 101.03 447.58 123.55 431.78 137.77 C 413.06 156.24 382.31 161.78 358.74 149.67 C 359.53 147.98 360.33 146.29 361.18 144.62 C 365.97 145.52 370.41 147.67 375.17 148.70 C 398.19 153.59 423.19 142.45 436.10 123.00 C 447.93 106.30 449.65 83.37 441.03 64.90 M 446.92 112.35 C 448.99 108.96 448.68 104.94 448.35 101.15 C 446.50 104.62 444.62 108.58 446.92 112.35 Z" />
<path fill="#8b20bf" opacity="1.00" d=" M 362.95 79.99 C 363.79 79.31 364.63 78.62 365.46 77.92 C 372.21 85.14 377.62 93.45 383.98 101.00 C 388.11 105.68 390.61 111.99 395.95 115.46 C 399.24 114.96 401.08 111.09 403.56 109.13 C 403.59 110.27 403.66 112.55 403.69 113.69 C 401.17 117.87 395.13 121.58 391.30 116.72 C 382.05 104.34 371.68 92.73 362.95 79.99 Z" />
<path fill="#8b20bf" opacity="1.00" d=" M 430.26 79.13 C 431.87 76.57 433.15 79.32 434.07 80.80 C 425.66 89.80 416.88 98.47 408.82 107.84 C 407.55 107.74 406.28 107.65 405.01 107.57 C 412.97 97.70 421.94 88.69 430.26 79.13 Z" />
<path fill="#8b20bf" opacity="1.00" d=" M 316.87 139.29 C 307.45 137.56 304.61 123.60 312.43 118.07 C 308.66 123.78 307.70 133.64 314.98 137.02 C 320.11 140.35 327.49 133.75 331.50 139.43 C 334.71 148.16 330.20 158.06 334.27 166.69 C 336.49 172.89 345.21 174.98 350.28 170.98 C 351.01 170.12 352.02 170.49 352.92 170.71 C 347.34 177.76 335.04 175.15 332.25 166.82 C 329.98 158.54 332.49 149.77 330.73 141.41 C 327.82 136.21 321.43 140.70 316.87 139.29 Z" />
<path fill="#8b20bf" opacity="1.00" d=" M 355.73 165.16 C 357.41 165.84 353.47 172.13 353.07 168.80 C 353.73 167.47 354.54 166.09 355.73 165.16 Z" />
</g>
</svg>
