<?xml version="1.0" encoding="UTF-8" ?>
<!DOCTYPE svg PUBLIC "-//W3C//DTD SVG 1.1//EN" "http://www.w3.org/Graphics/SVG/1.1/DTD/svg11.dtd">
<svg width="512pt" height="512pt" viewBox="0 0 512 512" version="1.1" xmlns="http://www.w3.org/2000/svg">
<g id="#1c2e60ff">
<path fill="#1c2e60" opacity="1.00" d=" M 198.31 66.29 C 196.50 51.48 208.92 36.89 223.99 37.22 C 235.34 37.13 244.06 45.51 253.73 50.25 C 256.86 51.36 257.64 54.55 257.31 57.54 C 255.86 58.22 254.41 58.93 252.95 59.58 C 244.86 56.17 237.90 50.61 229.88 47.10 C 220.44 43.19 208.62 50.21 207.44 60.33 C 206.67 69.20 207.66 78.13 207.00 87.00 C 206.94 90.05 203.62 91.10 201.08 90.88 C 165.71 90.86 130.34 90.85 94.97 90.88 C 86.68 90.38 79.00 97.62 79.03 105.91 C 78.91 157.97 79.05 210.04 78.96 262.09 C 79.41 265.01 76.71 266.46 74.71 267.88 C 72.53 266.53 69.72 265.15 70.14 262.09 C 69.86 214.68 70.39 167.25 69.88 119.84 C 62.97 121.17 56.56 126.63 56.11 133.98 C 55.65 145.33 56.30 156.71 55.91 168.06 C 56.22 170.84 53.52 172.08 51.70 173.54 C 49.55 172.38 46.77 170.99 47.16 168.06 C 47.13 156.67 47.03 145.28 47.22 133.90 C 47.69 121.88 58.22 111.90 70.06 111.09 C 68.15 97.54 77.84 83.17 91.94 82.15 C 120.46 81.69 149.01 82.33 177.52 81.83 C 181.09 73.34 189.44 67.87 198.31 66.29 M 187.62 81.89 C 191.18 82.08 194.74 82.06 198.30 81.94 C 198.32 79.78 198.31 77.62 198.29 75.46 C 194.06 76.26 190.37 78.62 187.62 81.89 Z" />
<path fill="#1c2e60" opacity="1.00" d=" M 289.44 76.07 C 291.41 74.71 293.91 73.11 296.20 74.85 C 313.36 84.65 330.48 94.55 347.58 104.46 C 360.13 110.77 365.13 127.88 357.98 139.96 C 353.96 147.74 345.51 151.14 338.43 155.45 C 338.52 165.02 333.50 174.43 325.04 179.08 C 287.82 200.53 250.66 222.09 213.40 243.47 C 201.98 250.04 186.19 245.77 179.35 234.60 C 173.02 224.92 176.07 212.89 175.30 202.06 C 170.54 202.02 165.77 202.02 161.01 202.06 C 160.94 244.70 161.00 287.35 160.98 330.00 C 161.01 335.93 161.41 342.18 158.62 347.63 C 154.98 355.65 146.76 360.96 138.05 361.65 C 138.85 371.02 135.59 381.12 127.45 386.45 C 122.41 390.08 116.07 391.12 109.99 390.81 C 96.63 390.71 83.27 390.93 69.91 390.71 C 57.72 390.24 47.17 379.28 47.16 367.08 C 46.98 313.36 47.03 259.64 47.04 205.92 C 46.67 202.95 49.50 201.57 51.70 200.46 C 53.92 202.00 56.38 203.84 55.90 206.92 C 55.97 259.97 55.94 313.02 55.99 366.07 C 55.58 374.67 63.36 382.32 71.93 381.95 C 86.29 381.90 100.66 382.14 115.01 381.84 C 124.85 381.24 130.83 370.88 129.08 361.72 C 116.93 361.30 104.76 361.89 92.62 361.47 C 80.59 360.93 70.32 350.09 70.17 338.09 C 70.03 328.39 69.95 318.67 70.18 308.98 C 70.01 306.21 72.84 305.07 74.61 303.56 C 76.36 305.04 79.15 306.19 78.92 308.94 C 79.25 318.65 78.75 328.37 79.06 338.07 C 79.24 345.82 86.19 352.66 93.95 352.69 C 108.32 352.78 122.69 352.76 137.05 352.69 C 145.22 352.70 152.43 345.23 152.06 337.05 C 152.08 290.37 152.07 243.68 152.06 197.00 C 152.10 190.50 151.48 183.59 154.60 177.62 C 158.59 169.23 167.69 163.73 176.96 164.00 C 185.65 164.08 194.36 163.81 203.04 164.11 C 206.16 164.01 207.42 167.30 207.17 169.94 C 207.53 178.41 206.55 186.96 207.65 195.39 C 209.67 206.03 223.09 212.03 232.36 206.39 C 269.80 184.84 307.25 163.30 344.59 141.58 C 354.78 135.71 354.97 119.24 344.85 113.21 C 327.25 102.68 309.28 92.76 291.66 82.30 C 289.19 81.17 289.54 78.31 289.44 76.07 M 248.38 207.42 C 240.92 211.39 233.83 217.30 224.97 217.37 C 212.58 217.96 200.55 208.37 198.77 196.01 C 197.78 188.38 198.68 180.67 198.24 173.01 C 189.86 172.99 181.44 172.56 173.09 173.23 C 164.17 174.94 159.47 184.64 161.01 193.10 C 167.32 193.43 173.64 192.96 179.94 193.29 C 181.97 193.25 183.96 194.86 183.96 196.97 C 184.61 206.09 183.37 215.31 184.61 224.39 C 186.50 235.24 200.21 241.32 209.56 235.49 C 246.35 214.33 283.07 193.07 319.84 171.87 C 323.98 169.62 327.38 166.00 328.73 161.41 C 301.63 176.14 275.23 192.20 248.38 207.42 Z" />
<path fill="#1c2e60" opacity="1.00" d=" M 384.55 125.51 C 389.87 121.66 396.61 120.86 403.00 121.19 C 416.03 121.28 429.06 121.07 442.09 121.29 C 454.29 121.75 464.83 132.72 464.83 144.93 C 465.01 198.64 464.98 252.36 464.96 306.07 C 465.32 309.04 462.49 310.42 460.30 311.53 C 458.08 309.99 455.61 308.16 456.10 305.08 C 456.02 252.03 456.06 198.98 456.01 145.93 C 456.38 137.34 448.66 129.66 440.07 130.05 C 425.71 130.10 411.34 129.86 396.99 130.16 C 387.13 130.70 381.17 141.13 382.92 150.28 C 395.07 150.70 407.24 150.11 419.39 150.53 C 431.44 151.05 441.67 161.92 441.83 173.91 C 441.97 183.61 442.05 193.33 441.82 203.02 C 441.96 205.77 439.15 206.92 437.40 208.43 C 435.64 206.95 432.84 205.80 433.08 203.06 C 432.75 193.35 433.26 183.63 432.94 173.92 C 432.75 166.18 425.82 159.33 418.06 159.31 C 403.70 159.22 389.32 159.24 374.95 159.30 C 366.78 159.28 359.55 166.77 359.94 174.95 C 359.93 221.63 359.93 268.32 359.94 315.00 C 359.88 321.26 360.49 327.88 357.70 333.71 C 354.00 342.08 345.25 347.90 336.08 347.97 C 327.69 348.06 319.30 347.98 310.92 348.02 C 308.66 348.11 305.55 347.59 305.13 344.88 C 304.07 335.50 305.65 325.97 304.34 316.61 C 302.34 305.97 288.92 299.93 279.64 305.61 C 242.21 327.17 204.76 348.72 167.42 370.44 C 157.18 376.26 157.04 392.79 167.16 398.79 C 184.78 409.28 202.77 419.18 220.37 429.71 C 222.78 430.85 222.45 433.67 222.57 435.89 C 220.62 437.26 218.09 438.81 215.81 437.15 C 198.64 427.36 181.59 417.35 164.43 407.53 C 149.88 400.42 146.10 379.03 157.37 367.40 C 161.80 362.49 168.13 360.08 173.58 356.56 C 173.48 347.25 178.18 338.01 186.35 333.33 C 223.76 311.71 261.14 290.05 298.61 268.54 C 310.89 261.36 328.18 267.07 334.06 279.93 C 338.51 289.30 335.98 299.97 336.70 309.94 C 341.46 309.98 346.23 309.98 350.99 309.94 C 351.06 267.63 351.00 225.31 351.02 183.00 C 351.07 176.98 350.43 170.65 353.06 165.03 C 356.56 156.68 364.99 151.02 373.95 150.34 C 373.12 140.95 376.42 130.88 384.55 125.51 M 296.71 279.78 C 261.47 300.16 226.20 320.50 190.95 340.86 C 187.22 343.03 184.49 346.58 183.23 350.69 C 214.54 333.42 245.18 314.89 276.36 297.36 C 288.07 291.02 303.98 296.07 310.30 307.68 C 315.75 317.23 312.90 328.58 313.76 338.99 C 322.14 339.00 330.56 339.45 338.91 338.76 C 347.82 337.05 352.52 327.35 350.99 318.90 C 344.68 318.56 338.36 319.04 332.06 318.71 C 330.06 318.71 327.98 317.14 328.03 315.03 C 327.50 306.40 328.36 297.73 327.65 289.12 C 326.85 280.90 319.22 274.19 311.00 274.26 C 305.65 273.99 301.13 277.26 296.71 279.78 Z" />
<path fill="#1c2e60" opacity="1.00" d=" M 432.99 258.00 C 433.18 253.08 431.38 246.37 437.29 244.12 C 439.47 245.46 442.28 246.84 441.86 249.90 C 442.16 297.30 441.57 344.72 442.15 392.11 C 449.08 390.84 455.39 385.33 455.87 378.02 C 456.37 366.67 455.70 355.29 456.09 343.94 C 455.77 341.15 458.48 339.90 460.30 338.44 C 462.43 339.61 465.22 341.00 464.84 343.94 C 464.86 355.32 464.97 366.71 464.78 378.09 C 464.29 390.10 453.77 400.08 441.94 400.90 C 443.83 414.45 434.13 428.79 420.06 429.85 C 391.58 430.44 362.95 429.44 334.54 430.34 C 330.67 438.65 322.60 444.17 313.68 445.72 C 315.58 460.91 302.39 475.75 286.96 474.77 C 276.05 474.31 267.67 466.32 258.27 461.75 C 255.14 460.61 254.28 457.48 254.69 454.45 C 256.14 453.77 257.58 453.06 259.06 452.42 C 267.14 455.83 274.10 461.39 282.13 464.89 C 291.57 468.80 303.35 461.79 304.55 451.67 C 305.35 442.80 304.33 433.86 305.00 424.99 C 305.04 421.93 308.39 420.90 310.93 421.12 C 346.29 421.13 381.66 421.16 417.03 421.12 C 425.71 421.62 433.51 413.72 433.01 405.07 C 433.00 356.04 433.03 307.02 432.99 258.00 M 313.68 430.06 C 313.68 432.20 313.70 434.34 313.75 436.49 C 317.98 435.74 321.62 433.34 324.37 430.11 C 320.81 429.92 317.24 429.94 313.68 430.06 Z" />
</g>
<g id="#4fed9aff">
<path fill="#4fed9a" opacity="1.00" d=" M 207.44 60.33 C 208.62 50.21 220.44 43.19 229.88 47.10 C 237.90 50.61 244.86 56.17 252.95 59.58 C 254.41 58.93 255.86 58.22 257.31 57.54 C 268.08 63.62 278.82 69.75 289.44 76.07 C 289.54 78.31 289.19 81.17 291.66 82.30 C 309.28 92.76 327.25 102.68 344.85 113.21 C 354.97 119.24 354.78 135.71 344.59 141.58 C 307.25 163.30 269.80 184.84 232.36 206.39 C 223.09 212.03 209.67 206.03 207.65 195.39 C 206.55 186.96 207.53 178.41 207.17 169.94 C 207.42 167.30 206.16 164.01 203.04 164.11 C 194.36 163.81 185.65 164.08 176.96 164.00 C 167.69 163.73 158.59 169.23 154.60 177.62 C 151.48 183.59 152.10 190.50 152.06 197.00 C 152.07 243.68 152.08 290.37 152.06 337.05 C 152.43 345.23 145.22 352.70 137.05 352.69 C 122.69 352.76 108.32 352.78 93.95 352.69 C 86.19 352.66 79.24 345.82 79.06 338.07 C 78.75 328.37 79.25 318.65 78.92 308.94 C 79.15 306.19 76.36 305.04 74.61 303.56 C 74.61 291.67 74.44 279.77 74.71 267.88 C 76.71 266.46 79.41 265.01 78.96 262.09 C 79.05 210.04 78.91 157.97 79.03 105.91 C 79.00 97.62 86.68 90.38 94.97 90.88 C 130.34 90.85 165.71 90.86 201.08 90.88 C 203.62 91.10 206.94 90.05 207.00 87.00 C 207.66 78.13 206.67 69.20 207.44 60.33 Z" />
<path fill="#4fed9a" opacity="1.00" d=" M 359.94 174.95 C 359.55 166.77 366.78 159.28 374.95 159.30 C 389.32 159.24 403.70 159.22 418.06 159.31 C 425.82 159.33 432.75 166.18 432.94 173.92 C 433.26 183.63 432.75 193.35 433.08 203.06 C 432.84 205.80 435.64 206.95 437.40 208.43 C 437.39 220.33 437.57 232.23 437.29 244.12 C 431.38 246.37 433.18 253.08 432.99 258.00 C 433.03 307.02 433.00 356.04 433.01 405.07 C 433.51 413.72 425.71 421.62 417.03 421.12 C 381.66 421.16 346.29 421.13 310.93 421.12 C 308.39 420.90 305.04 421.93 305.00 424.99 C 304.33 433.86 305.35 442.80 304.55 451.67 C 303.35 461.79 291.57 468.80 282.13 464.89 C 274.10 461.39 267.14 455.83 259.06 452.42 C 257.58 453.06 256.14 453.77 254.69 454.45 C 243.93 448.35 233.21 442.18 222.57 435.89 C 222.45 433.67 222.78 430.85 220.37 429.71 C 202.77 419.18 184.78 409.28 167.16 398.79 C 157.04 392.79 157.18 376.26 167.42 370.44 C 204.76 348.72 242.21 327.17 279.64 305.61 C 288.92 299.93 302.34 305.97 304.34 316.61 C 305.65 325.97 304.07 335.50 305.13 344.88 C 305.55 347.59 308.66 348.11 310.92 348.02 C 319.30 347.98 327.69 348.06 336.08 347.97 C 345.25 347.90 354.00 342.08 357.70 333.71 C 360.49 327.88 359.88 321.26 359.94 315.00 C 359.93 268.32 359.93 221.63 359.94 174.95 Z" />
</g>
<g id="#00b889ff">
<path fill="#00b889" opacity="1.00" d=" M 187.62 81.89 C 190.37 78.62 194.06 76.26 198.29 75.46 C 198.31 77.62 198.32 79.78 198.30 81.94 C 194.74 82.06 191.18 82.08 187.62 81.89 Z" />
<path fill="#00b889" opacity="1.00" d=" M 56.11 133.98 C 56.56 126.63 62.97 121.17 69.88 119.84 C 70.39 167.25 69.86 214.68 70.14 262.09 C 69.72 265.15 72.53 266.53 74.71 267.88 C 74.44 279.77 74.61 291.67 74.61 303.56 C 72.84 305.07 70.01 306.21 70.18 308.98 C 69.95 318.67 70.03 328.39 70.17 338.09 C 70.32 350.09 80.59 360.93 92.62 361.47 C 104.76 361.89 116.93 361.30 129.08 361.72 C 130.83 370.88 124.85 381.24 115.01 381.84 C 100.66 382.14 86.29 381.90 71.93 381.95 C 63.36 382.32 55.58 374.67 55.99 366.07 C 55.94 313.02 55.97 259.97 55.90 206.92 C 56.38 203.84 53.92 202.00 51.70 200.46 C 51.45 191.49 51.45 182.51 51.70 173.54 C 53.52 172.08 56.22 170.84 55.91 168.06 C 56.30 156.71 55.65 145.33 56.11 133.98 Z" />
<path fill="#00b889" opacity="1.00" d=" M 382.92 150.28 C 381.17 141.13 387.13 130.70 396.99 130.16 C 411.34 129.86 425.71 130.10 440.07 130.05 C 448.66 129.66 456.38 137.34 456.01 145.93 C 456.06 198.98 456.02 252.03 456.10 305.08 C 455.61 308.16 458.08 309.99 460.30 311.53 C 460.55 320.49 460.55 329.48 460.30 338.44 C 458.48 339.90 455.77 341.15 456.09 343.94 C 455.70 355.29 456.37 366.67 455.87 378.02 C 455.39 385.33 449.08 390.84 442.15 392.11 C 441.57 344.72 442.16 297.30 441.86 249.90 C 442.28 246.84 439.47 245.46 437.29 244.12 C 437.57 232.23 437.39 220.33 437.40 208.43 C 439.15 206.92 441.96 205.77 441.82 203.02 C 442.05 193.33 441.97 183.61 441.83 173.91 C 441.67 161.92 431.44 151.05 419.39 150.53 C 407.24 150.11 395.07 150.70 382.92 150.28 Z" />
<path fill="#00b889" opacity="1.00" d=" M 248.38 207.42 C 275.23 192.20 301.63 176.14 328.73 161.41 C 327.38 166.00 323.98 169.62 319.84 171.87 C 283.07 193.07 246.35 214.33 209.56 235.49 C 200.21 241.32 186.50 235.24 184.61 224.39 C 183.37 215.31 184.61 206.09 183.96 196.97 C 183.96 194.86 181.97 193.25 179.94 193.29 C 173.64 192.96 167.32 193.43 161.01 193.10 C 159.47 184.64 164.17 174.94 173.09 173.23 C 181.44 172.56 189.86 172.99 198.24 173.01 C 198.68 180.67 197.78 188.38 198.77 196.01 C 200.55 208.37 212.58 217.96 224.97 217.37 C 233.83 217.30 240.92 211.39 248.38 207.42 Z" />
<path fill="#00b889" opacity="1.00" d=" M 296.71 279.78 C 301.13 277.26 305.65 273.99 311.00 274.26 C 319.22 274.19 326.85 280.90 327.65 289.12 C 328.36 297.73 327.50 306.40 328.03 315.03 C 327.98 317.14 330.06 318.71 332.06 318.71 C 338.36 319.04 344.68 318.56 350.99 318.90 C 352.52 327.35 347.82 337.05 338.91 338.76 C 330.56 339.45 322.14 339.00 313.76 338.99 C 312.90 328.58 315.75 317.23 310.30 307.68 C 303.98 296.07 288.07 291.02 276.36 297.36 C 245.18 314.89 214.54 333.42 183.23 350.69 C 184.49 346.58 187.22 343.03 190.95 340.86 C 226.20 320.50 261.47 300.16 296.71 279.78 Z" />
<path fill="#00b889" opacity="1.00" d=" M 313.68 430.06 C 317.24 429.94 320.81 429.92 324.37 430.11 C 321.62 433.34 317.98 435.74 313.75 436.49 C 313.70 434.34 313.68 432.20 313.68 430.06 Z" />
</g>
</svg>
